<svg width="16" height="16" viewBox="0 0 16 16" fill="none" xmlns="http://www.w3.org/2000/svg">
<path d="M13.0494 3.4026C13.0445 3.39519 13.0395 3.38778 13.0296 3.38532C12.0889 2.95322 11.0938 2.64457 10.0741 2.46927C10.0642 2.4668 10.0543 2.46927 10.0469 2.47174C10.0395 2.4742 10.0321 2.48161 10.0272 2.49149C9.89138 2.73593 9.76792 2.99025 9.65928 3.24704C8.55804 3.07914 7.43952 3.07914 6.34076 3.24704C6.22965 2.98778 6.10619 2.73593 5.96792 2.49149C5.96298 2.48408 5.95557 2.47667 5.94817 2.47174C5.94076 2.4668 5.93088 2.4668 5.92101 2.4668C4.90125 2.64211 3.90619 2.95075 2.96545 3.38285C2.95804 3.38532 2.95064 3.39272 2.9457 3.40013C1.06422 6.21001 0.548166 8.95322 0.800018 11.6594C0.800018 11.6668 0.802487 11.6717 0.804957 11.6791C0.807426 11.6866 0.812364 11.689 0.817302 11.694C1.9136 12.5063 3.13829 13.1261 4.44199 13.5261C4.45187 13.5285 4.46175 13.5285 4.46915 13.5261C4.47656 13.5236 4.48644 13.5162 4.49138 13.5088C4.77039 13.1285 5.01977 12.7236 5.23212 12.3038C5.23459 12.2989 5.23706 12.2915 5.23706 12.2841C5.23706 12.2767 5.23706 12.2717 5.23459 12.2643C5.23212 12.2569 5.22965 12.252 5.22471 12.2495C5.21977 12.247 5.21483 12.2421 5.20743 12.2396C4.8173 12.089 4.43706 11.9088 4.07409 11.6989C4.06668 11.694 4.06175 11.689 4.05681 11.6841C4.05187 11.6791 4.0494 11.6693 4.0494 11.6619C4.0494 11.6545 4.0494 11.647 4.05434 11.6396C4.05928 11.6322 4.06175 11.6273 4.06915 11.6224C4.1457 11.5656 4.22224 11.5063 4.29385 11.447C4.30125 11.4421 4.30866 11.4372 4.31607 11.4372C4.32347 11.4372 4.33335 11.4372 4.34076 11.4396C6.71607 12.5236 9.28891 12.5236 11.6371 11.4396C11.6445 11.4372 11.6543 11.4347 11.6617 11.4347C11.6692 11.4347 11.679 11.4396 11.684 11.4446C11.7556 11.5038 11.8321 11.5656 11.9087 11.6224C11.9136 11.6273 11.9185 11.6322 11.9235 11.6396C11.9284 11.647 11.9284 11.6545 11.9284 11.6619C11.9284 11.6693 11.9259 11.6767 11.921 11.6841C11.9161 11.6915 11.9111 11.6964 11.9062 11.6989C11.5432 11.9112 11.1654 12.0915 10.7729 12.2372C10.7679 12.2396 10.7605 12.2421 10.7556 12.247C10.7506 12.252 10.7482 12.2569 10.7457 12.2643C10.7432 12.2717 10.7432 12.2767 10.7432 12.2841C10.7432 12.2915 10.7457 12.2964 10.7482 12.3038C10.9654 12.7236 11.2124 13.1261 11.4889 13.5088C11.4938 13.5162 11.5037 13.5236 11.5111 13.5261C11.5185 13.5285 11.5309 13.5285 11.5383 13.5261C12.8445 13.1261 14.0716 12.5063 15.1704 11.694C15.1753 11.689 15.1803 11.6841 15.1827 11.6791C15.1852 11.6742 15.1877 11.6668 15.1877 11.6594C15.4914 8.52853 14.6815 5.81001 13.042 3.40013L13.0494 3.4026ZM5.59261 10.0125C4.87656 10.0125 4.28891 9.35569 4.28891 8.55075C4.28891 7.74581 4.86668 7.08902 5.59261 7.08902C6.32594 7.08902 6.90866 7.75075 6.89631 8.55075C6.89631 9.35815 6.31854 10.0125 5.59261 10.0125ZM10.4173 10.0125C9.70125 10.0125 9.1136 9.35569 9.1136 8.55075C9.1136 7.74581 9.69138 7.08902 10.4173 7.08902C11.1506 7.08902 11.7334 7.75075 11.721 8.55075C11.721 9.35815 11.1482 10.0125 10.4173 10.0125Z" fill="black"/>
</svg>
