<svg xmlns="http://www.w3.org/2000/svg" style="display: none;">
  <symbol id="icon-Discord" viewBox="0 0 16 16">
    <path d="M13.0494 3.4026C13.0445 3.39519 13.0395 3.38778 13.0296 3.38532C12.0889 2.95322 11.0938 2.64457 10.0741 2.46927C10.0642 2.4668 10.0543 2.46927 10.0469 2.47174C10.0395 2.4742 10.0321 2.48161 10.0272 2.49149C9.89138 2.73593 9.76792 2.99025 9.65928 3.24704C8.55804 3.07914 7.43952 3.07914 6.34076 3.24704C6.22965 2.98778 6.10619 2.73593 5.96792 2.49149C5.96298 2.48408 5.95557 2.47667 5.94817 2.47174C5.94076 2.4668 5.93088 2.4668 5.92101 2.4668C4.90125 2.64211 3.90619 2.95075 2.96545 3.38285C2.95804 3.38532 2.95064 3.39272 2.9457 3.40013C1.06422 6.21001 0.548166 8.95322 0.800018 11.6594C0.800018 11.6668 0.802487 11.6717 0.804957 11.6791C0.807426 11.6866 0.812364 11.689 0.817302 11.694C1.9136 12.5063 3.13829 13.1261 4.44199 13.5261C4.45187 13.5285 4.46175 13.5285 4.46915 13.5261C4.47656 13.5236 4.48644 13.5162 4.49138 13.5088C4.77039 13.1285 5.01977 12.7236 5.23212 12.3038C5.23459 12.2989 5.23706 12.2915 5.23706 12.2841C5.23706 12.2767 5.23706 12.2717 5.23459 12.2643C5.23212 12.2569 5.22965 12.252 5.22471 12.2495C5.21977 12.247 5.21483 12.2421 5.20743 12.2396C4.8173 12.089 4.43706 11.9088 4.07409 11.6989C4.06668 11.694 4.06175 11.689 4.05681 11.6841C4.05187 11.6791 4.0494 11.6693 4.0494 11.6619C4.0494 11.6545 4.0494 11.647 4.05434 11.6396C4.05928 11.6322 4.06175 11.6273 4.06915 11.6224C4.1457 11.5656 4.22224 11.5063 4.29385 11.447C4.30125 11.4421 4.30866 11.4372 4.31607 11.4372C4.32347 11.4372 4.33335 11.4372 4.34076 11.4396C6.71607 12.5236 9.28891 12.5236 11.6371 11.4396C11.6445 11.4372 11.6543 11.4347 11.6617 11.4347C11.6692 11.4347 11.679 11.4396 11.684 11.4446C11.7556 11.5038 11.8321 11.5656 11.9087 11.6224C11.9136 11.6273 11.9185 11.6322 11.9235 11.6396C11.9284 11.647 11.9284 11.6545 11.9284 11.6619C11.9284 11.6693 11.9259 11.6767 11.921 11.6841C11.9161 11.6915 11.9111 11.6964 11.9062 11.6989C11.5432 11.9112 11.1654 12.0915 10.7729 12.2372C10.7679 12.2396 10.7605 12.2421 10.7556 12.247C10.7506 12.252 10.7482 12.2569 10.7457 12.2643C10.7432 12.2717 10.7432 12.2767 10.7432 12.2841C10.7432 12.2915 10.7457 12.2964 10.7482 12.3038C10.9654 12.7236 11.2124 13.1261 11.4889 13.5088C11.4938 13.5162 11.5037 13.5236 11.5111 13.5261C11.5185 13.5285 11.5309 13.5285 11.5383 13.5261C12.8445 13.1261 14.0716 12.5063 15.1704 11.694C15.1753 11.689 15.1803 11.6841 15.1827 11.6791C15.1852 11.6742 15.1877 11.6668 15.1877 11.6594C15.4914 8.52853 14.6815 5.81001 13.042 3.40013L13.0494 3.4026ZM5.59261 10.0125C4.87656 10.0125 4.28891 9.35569 4.28891 8.55075C4.28891 7.74581 4.86668 7.08902 5.59261 7.08902C6.32594 7.08902 6.90866 7.75075 6.89631 8.55075C6.89631 9.35815 6.31854 10.0125 5.59261 10.0125ZM10.4173 10.0125C9.70125 10.0125 9.1136 9.35569 9.1136 8.55075C9.1136 7.74581 9.69138 7.08902 10.4173 7.08902C11.1506 7.08902 11.7334 7.75075 11.721 8.55075C11.721 9.35815 11.1482 10.0125 10.4173 10.0125Z" fill="black"/>
  </symbol>
  <symbol id="icon-Donate" viewBox="0 0 16 16">
    <path d="M10.25 3.5H5.75L4.58437 1.17188C4.52812 1.05938 4.5 0.934375 4.5 0.809375C4.5 0.3625 4.8625 0 5.30937 0H10.6906C11.1375 0 11.5 0.3625 11.5 0.809375C11.5 0.934375 11.4719 1.05938 11.4156 1.17188L10.25 3.5ZM5.3 5H10.7L12.2219 6.26875C14.3 8 15.5 10.5625 15.5 13.2656C15.5 14.775 14.275 16 12.7656 16H3.23125C1.725 16 0.5 14.775 0.5 13.2656C0.5 10.5625 1.7 8 3.77813 6.26875L5.3 5ZM8.125 7C7.78125 7 7.5 7.28125 7.5 7.625V7.75C6.6 7.75938 5.875 8.49063 5.875 9.39062C5.875 10.1938 6.45312 10.8781 7.24687 11.0094L8.55 11.2281C8.7375 11.2594 8.875 11.4219 8.875 11.6125C8.875 11.8281 8.7 12.0031 8.48438 12.0031L6.75 12C6.40625 12 6.125 12.2812 6.125 12.625C6.125 12.9688 6.40625 13.25 6.75 13.25H7.5V13.375C7.5 13.7188 7.78125 14 8.125 14C8.46875 14 8.75 13.7188 8.75 13.375V13.2281C9.53125 13.1 10.125 12.425 10.125 11.6094C10.125 10.8062 9.54688 10.1219 8.75313 9.99063L7.45 9.77188C7.2625 9.74063 7.125 9.57812 7.125 9.3875C7.125 9.17188 7.3 8.99687 7.51562 8.99687H9C9.34375 8.99687 9.625 8.71562 9.625 8.37187C9.625 8.02812 9.34375 7.74687 9 7.74687H8.75V7.62187C8.75 7.27812 8.46875 6.99687 8.125 6.99687V7Z" fill="black"/>
  </symbol>
  <symbol id="icon-Figma" viewBox="0 0 16 16">
    <path d="M13.7143 0C14.975 0 16 1.025 16 2.28571V13.7143C16 14.975 14.975 16 13.7143 16H2.28571C1.025 16 0 14.975 0 13.7143V2.28571C0 1.025 1.025 0 2.28571 0H13.7143ZM6.20357 2.28571C5.025 2.28571 4.06786 3.24286 4.06786 4.42143C4.06786 5.17143 4.45357 5.82857 5.03929 6.21071C4.45357 6.59286 4.06786 7.25 4.06786 8C4.06786 8.75 4.45357 9.41072 5.03929 9.78929C4.45357 10.1714 4.06786 10.8286 4.06786 11.5786C4.06786 12.7607 5.03571 13.7143 6.21429 13.7143C7.4 13.7143 8.37857 12.7536 8.37857 11.5607V9.57143C8.75714 9.92143 9.26429 10.1357 9.82143 10.1357H9.86071C11.0393 10.1357 11.9964 9.17857 11.9964 8C11.9964 7.25 11.6107 6.58929 11.025 6.21071C11.6107 5.82857 11.9964 5.17143 11.9964 4.42143C11.9964 3.24286 11.0393 2.28571 9.86071 2.28571H6.20357ZM7.68929 10.1357V11.5607C7.68929 12.3679 7.025 13.025 6.21429 13.025C5.41429 13.025 4.76071 12.375 4.76071 11.5786C4.76071 10.7821 5.40714 10.1357 6.2 10.1357H7.68929ZM7.68929 6.55357V9.44286H6.2C5.40357 9.43929 4.76071 8.79286 4.76071 7.99643C4.76071 7.2 5.40714 6.55 6.20714 6.55H7.69286L7.68929 6.55357ZM9.86071 6.55357C10.6571 6.55357 11.3071 7.2 11.3071 8C11.3071 8.8 10.6607 9.44643 9.86071 9.44643H9.82143C9.025 9.44643 8.37857 8.8 8.37857 8C8.37857 7.2 9.025 6.55357 9.82143 6.55357H9.86071ZM7.68929 5.86429H6.20357C5.40714 5.86429 4.75714 5.21786 4.75714 4.42143C4.75714 3.625 5.40357 2.975 6.20357 2.975H7.68929V5.86429ZM9.86071 2.975C10.6571 2.975 11.3071 3.62143 11.3071 4.42143C11.3071 5.22143 10.6607 5.86429 9.86071 5.86429H8.37857V2.975H9.86071Z" fill="black"/>
  </symbol>
  <symbol id="icon-Git" viewBox="0 0 16 16">
    <path d="M14.7375 7.37813L8.625 1.26562C8.45625 1.09375 8.225 1 7.9875 1C7.75 1 7.51875 1.09375 7.35 1.2625L6.07812 2.53125L7.6875 4.14062C8.53438 3.85625 9.33437 4.66562 9.04375 5.50625L10.5969 7.05937C11.6656 6.69062 12.5094 8.02813 11.7063 8.83125C10.8781 9.65938 9.5125 8.74063 9.95625 7.66563L8.50938 6.21875V10.0281C9.3 10.4187 9.20625 11.3344 8.79375 11.7469C8.59375 11.9469 8.31875 12.0625 8.03438 12.0625C7.75 12.0625 7.47813 11.95 7.275 11.7469C6.725 11.1969 6.92812 10.2812 7.625 9.99687V6.15312C6.975 5.8875 6.85625 5.19375 7.04375 4.74687L5.45625 3.15625L1.26562 7.34688C1.09375 7.51875 1 7.74687 1 7.98438C1 8.22188 1.09375 8.45312 1.26562 8.62187L7.37813 14.7375C7.54688 14.9062 7.775 15 8.01562 15C8.25625 15 8.48438 14.9062 8.65312 14.7375L14.7375 8.65312C14.9062 8.48438 15 8.25313 15 8.01562C15 7.77812 14.9062 7.54688 14.7375 7.37813Z" fill="black"/>
  </symbol>
  <symbol id="icon-GitHub" viewBox="0 0 16 16">
    <path d="M16 2.28571C16 1.025 14.975 0 13.7143 0H2.28571C1.025 0 0 1.025 0 2.28571V13.7143C0 14.975 1.025 16 2.28571 16H13.7143C14.975 16 16 14.975 16 13.7143V2.28571ZM9.49286 13.4179C9.49286 13.3536 9.49286 13.2036 9.49643 13.0036C9.5 12.5964 9.5 11.975 9.5 11.4429C9.5 10.8857 9.31429 10.5321 9.09643 10.3464C10.4179 10.2 11.8107 10.0179 11.8107 7.73571C11.8107 7.08571 11.5786 6.76072 11.2 6.34286C11.2607 6.18929 11.4643 5.55714 11.1393 4.73571C10.6429 4.58214 9.50714 5.375 9.50714 5.375C8.55714 5.10714 7.48571 5.10714 6.53571 5.375C6.53571 5.375 5.4 4.58214 4.90357 4.73571C4.57857 5.55357 4.77857 6.18571 4.84286 6.34286C4.46429 6.76072 4.28571 7.08571 4.28571 7.73571C4.28571 10.0071 5.61786 10.2 6.93929 10.3464C6.76786 10.5 6.61429 10.7643 6.56071 11.1429C6.22143 11.2964 5.35357 11.5607 4.83571 10.6464C4.51071 10.0821 3.925 10.0357 3.925 10.0357C3.34643 10.0286 3.88571 10.4 3.88571 10.4C4.27143 10.5786 4.54286 11.2643 4.54286 11.2643C4.88929 12.325 6.54643 11.9679 6.54643 11.9679C6.54643 12.2893 6.55 12.7429 6.55 13.0607C6.55 13.2321 6.55357 13.3679 6.55357 13.4179C6.55357 13.5714 6.44643 13.7571 6.14286 13.7036C3.78571 12.9143 2.13571 10.6714 2.13571 8.05C2.13571 4.77143 4.64286 2.28214 7.92143 2.28214C11.2 2.28214 13.8571 4.77143 13.8571 8.05C13.8607 10.6714 12.2607 12.9179 9.90357 13.7036C9.60357 13.7571 9.49286 13.5714 9.49286 13.4179ZM6.26071 11.4607C6.25357 11.4071 6.3 11.3607 6.36786 11.3464C6.43571 11.3393 6.5 11.3679 6.50714 11.4143C6.51786 11.4607 6.47143 11.5071 6.4 11.5214C6.33214 11.5357 6.26786 11.5071 6.26071 11.4607ZM5.93571 11.575C5.85714 11.5821 5.80357 11.5429 5.80357 11.4893C5.80357 11.4429 5.85714 11.4036 5.92857 11.4036C5.99643 11.3964 6.06071 11.4357 6.06071 11.4893C6.06071 11.5357 6.00714 11.575 5.93571 11.575ZM5.425 11.4964C5.35714 11.4821 5.31071 11.4286 5.325 11.3821C5.33929 11.3357 5.41071 11.3143 5.47143 11.3286C5.54286 11.35 5.58929 11.4036 5.57143 11.45C5.55714 11.4964 5.48571 11.5179 5.425 11.4964ZM4.97857 11.2357C4.925 11.1893 4.91071 11.1214 4.94643 11.0893C4.97857 11.05 5.04643 11.0571 5.1 11.1107C5.14643 11.1571 5.16429 11.2286 5.13214 11.2571C5.1 11.2964 5.03214 11.2893 4.97857 11.2357ZM4.675 10.8786C4.63571 10.825 4.63571 10.7643 4.675 10.7393C4.71429 10.7071 4.775 10.7321 4.80714 10.7857C4.84643 10.8393 4.84643 10.9036 4.80714 10.9321C4.775 10.9536 4.71429 10.9321 4.675 10.8786ZM4.45 10.5643C4.41071 10.5179 4.40357 10.4643 4.43571 10.4393C4.46786 10.4071 4.52143 10.425 4.56071 10.4607C4.6 10.5071 4.60714 10.5607 4.575 10.5857C4.54286 10.6179 4.48929 10.6 4.45 10.5643ZM4.23571 10.3357C4.18929 10.3143 4.16786 10.275 4.18214 10.2429C4.19643 10.2214 4.23571 10.2107 4.28214 10.2286C4.32857 10.2536 4.35 10.2929 4.33571 10.3214C4.32143 10.3536 4.275 10.3607 4.23571 10.3357Z" fill="black"/>
  </symbol>
  <symbol id="icon-lapka-text" viewBox="0 0 123 48">
    <g clip-path="url(#clip0_227_7376)">
<path fill-rule="evenodd" clip-rule="evenodd" d="M24.0155 12.7495C21.0448 12.7495 20.7477 13.0635 19.2101 13.0635C17.9295 13.0635 14.0836 9.9375 12.1627 9.9375C10.2417 9.9375 7.99765 11.0635 7.99765 14.3135V18.0635C8.00166 19.0475 8.35895 22.0635 9.76402 21.2575C8.10403 23.2135 7.93743 25.4955 7.95951 27.7035C7.51189 27.8315 7.05625 27.9775 6.61265 28.1275C5.23969 28.5955 3.78243 29.1915 3.12606 29.6155C2.79067 29.8314 2.5551 30.1712 2.47115 30.5601C2.38721 30.9491 2.46177 31.3553 2.67844 31.6895C2.89511 32.0237 3.23613 32.2584 3.62649 32.342C4.01685 32.4257 4.42457 32.3514 4.75996 32.1355C5.07309 31.9335 6.20718 31.4355 7.58616 30.9655L8.04381 30.8155C8.13615 31.6815 8.36698 32.4755 8.71022 33.1955L8.66205 33.2215C7.83907 33.6535 7.07632 34.1515 6.59057 34.4675L6.36375 34.6155C6.02836 34.8314 5.79279 35.1712 5.70884 35.5601C5.6249 35.9491 5.69946 36.3553 5.91613 36.6895C6.1328 37.0237 6.47382 37.2584 6.86418 37.342C7.25454 37.4257 7.66226 37.3514 7.99765 37.1355L8.2606 36.9635C8.75237 36.6435 9.38265 36.2335 10.0691 35.8735C10.2297 35.7882 10.3843 35.7108 10.5328 35.6415C14.0053 38.8875 20.2419 39.9375 24.0155 39.9375C27.7891 39.9375 34.0256 38.8875 37.4982 35.6415C37.6454 35.7108 37.7999 35.7882 37.9618 35.8735C38.6483 36.2335 39.2786 36.6435 39.7704 36.9635L40.0333 37.1355C40.3687 37.3514 40.7764 37.4257 41.1668 37.342C41.5571 37.2584 41.8982 37.0237 42.1148 36.6895C42.3315 36.3553 42.4061 35.9491 42.3221 35.5601C42.2382 35.1712 42.0026 34.8314 41.6672 34.6155L41.4404 34.4675C40.7696 34.0205 40.0784 33.6047 39.3689 33.2215L39.3207 33.1955C39.664 32.4755 39.8948 31.6815 39.9872 30.8155L40.4448 30.9655C41.8238 31.4355 42.9579 31.9335 43.273 32.1355C43.6082 32.3393 44.0101 32.4045 44.3929 32.3172C44.7757 32.2299 45.1091 31.997 45.322 31.6682C45.5349 31.3395 45.6105 30.9408 45.5326 30.5573C45.4546 30.1738 45.2294 29.8359 44.9049 29.6155C44.2485 29.1915 42.7913 28.5955 41.4203 28.1275C40.9739 27.9756 40.5242 27.8336 40.0715 27.7015C40.0955 25.4935 39.9269 23.2135 38.2649 21.2575C39.67 22.0635 40.0313 19.0475 40.0333 18.0615V14.3135C40.0333 11.0635 37.7912 9.9375 35.8683 9.9375C33.9473 9.9375 30.1015 13.0635 28.8228 13.0635C27.2833 13.0635 26.9862 12.7495 24.0155 12.7495ZM22.6606 31.1375C23.0661 30.9995 23.5458 30.9375 24.0155 30.9375C24.4852 30.9375 24.9649 30.9995 25.3724 31.1375C25.5731 31.2055 25.814 31.3135 26.0308 31.4855C26.1793 31.5973 26.3007 31.7408 26.3862 31.9056C26.4716 32.0704 26.5189 32.2521 26.5245 32.4375C26.5245 32.8975 26.2455 33.2175 26.0308 33.3895C25.816 33.5615 25.5711 33.6695 25.3724 33.7375C24.9649 33.8755 24.4852 33.9375 24.0155 33.9375C23.5458 33.9375 23.0661 33.8755 22.6606 33.7375C22.4222 33.6597 22.1989 33.542 22.0002 33.3895C21.8517 33.2777 21.7302 33.1341 21.6448 32.9694C21.5593 32.8046 21.512 32.6229 21.5064 32.4375C21.5064 31.9775 21.7854 31.6575 22.0002 31.4855C22.215 31.3135 22.4619 31.2055 22.6606 31.1375ZM28.3712 24.9375C28.6462 24.4815 29.1861 23.9375 29.9971 23.9375C30.808 23.9375 31.35 24.4815 31.6229 24.9375C31.908 25.4155 32.0445 25.9915 32.0445 26.5635C32.0445 27.1355 31.908 27.7095 31.6229 28.1855C31.35 28.6435 30.808 29.1875 29.9971 29.1875C29.1861 29.1875 28.6462 28.6435 28.3712 28.1875C28.0883 27.6931 27.9428 27.1325 27.9497 26.5635C27.9497 25.9915 28.0862 25.4155 28.3712 24.9395M16.408 24.9395C16.683 24.4835 17.223 23.9395 18.0339 23.9395C18.8448 23.9395 19.3868 24.4835 19.6598 24.9395C19.9448 25.4175 20.0813 25.9935 20.0813 26.5655C20.0813 27.1375 19.9448 27.7115 19.6598 28.1875C19.3868 28.6455 18.8448 29.1895 18.0339 29.1895C17.223 29.1895 16.683 28.6455 16.408 28.1895C16.1251 27.6951 15.9796 27.1346 15.9865 26.5655C15.9865 25.9935 16.123 25.4155 16.408 24.9395Z" fill="#F2F2F2"/>
</g>
<path d="M55.7778 32.7222V30.0556H58V16.7222H67.3333V32.7222H64.6667V19.3889H60.6667V30.5H58.4444V32.7222H55.7778ZM71.7843 30.0556H78.0065V28.2778H71.7843V30.0556ZM71.3398 32.7222V30.5H69.1176V27.8333H71.3398V25.6111H78.0065V23.8333H71.3398V21.1667H78.4324V23.4074H80.6732V32.7222H71.3398ZM82.4575 32.7222V21.1667H94.013V32.7222H91.3464V23.8333H85.1241V32.7222H82.4575ZM95.7973 32.7222V21.1667H98.464V25.6111H102.464V23.4074H104.686V21.1667H107.353V23.8333H105.112V26.0556H102.908V27.8333H105.112V30.0556H107.353V32.7222H104.686V30.5H102.464V28.2778H98.464V32.7222H95.7973ZM111.804 30.0556H118.026V28.2778H111.804V30.0556ZM111.359 32.7222V30.5H109.137V27.8333H111.359V25.6111H118.026V23.8333H111.359V21.1667H118.452V23.4074H120.693V32.7222H111.359Z" fill="#F2F2F2"/>
<defs>
<clipPath id="clip0_227_7376">
<rect width="48" height="48" fill="white"/>
</clipPath>
</defs>
  </symbol>
  <symbol id="icon-lapka-text2" viewBox="0 0 267 182">
    <g clip-path="url(#clip0_227_7474)">
<path fill-rule="evenodd" clip-rule="evenodd" d="M133.741 33.9987C125.819 33.9987 125.027 34.836 120.927 34.836C117.512 34.836 107.256 26.5 102.134 26.5C97.0113 26.5 91.0271 29.5027 91.0271 38.1693V48.1693C91.0378 50.7933 91.9905 58.836 95.7374 56.6867C91.3108 61.9027 90.8665 67.988 90.9254 73.876C89.7317 74.2173 88.5167 74.6067 87.3337 75.0067C83.6725 76.2547 79.7865 77.844 78.0362 78.9747C77.1418 79.5504 76.5136 80.4565 76.2898 81.4937C76.0659 82.5309 76.2647 83.6142 76.8425 84.5053C77.4203 85.3965 78.3297 86.0224 79.3707 86.2454C80.4116 86.4685 81.4989 86.2704 82.3932 85.6947C83.2282 85.156 86.2525 83.828 89.9298 82.5747L91.1502 82.1747C91.3964 84.484 92.012 86.6013 92.9273 88.5213L92.7988 88.5907C90.6042 89.7427 88.5702 91.0707 87.2749 91.9133L86.67 92.308C85.7756 92.8837 85.1474 93.7898 84.9236 94.827C84.6997 95.8642 84.8986 96.9475 85.4764 97.8387C86.0541 98.7298 86.9635 99.3557 88.0045 99.5788C89.0455 99.8018 90.1327 99.6037 91.0271 99.028L91.7283 98.5693C93.0397 97.716 94.7204 96.6227 96.551 95.6627C96.9792 95.4351 97.3914 95.2289 97.7875 95.044C107.048 103.7 123.678 106.5 133.741 106.5C143.804 106.5 160.435 103.7 169.695 95.044C170.088 95.2289 170.5 95.4351 170.932 95.6627C172.762 96.6227 174.443 97.716 175.754 98.5693L176.456 99.028C177.35 99.6037 178.437 99.8018 179.478 99.5788C180.519 99.3557 181.428 98.7298 182.006 97.8387C182.584 96.9475 182.783 95.8642 182.559 94.827C182.335 93.7898 181.707 92.8837 180.813 92.308L180.208 91.9133C178.419 90.7213 176.576 89.6125 174.684 88.5907L174.555 88.5213C175.471 86.6013 176.086 84.484 176.332 82.1747L177.553 82.5747C181.23 83.828 184.254 85.156 185.095 85.6947C185.989 86.2381 187.06 86.4119 188.081 86.1792C189.102 85.9464 189.991 85.3254 190.559 84.4487C191.127 83.5719 191.328 82.5089 191.12 81.4862C190.912 80.4636 190.312 79.5623 189.446 78.9747C187.696 77.844 183.81 76.2547 180.154 75.0067C178.964 74.6017 177.764 74.223 176.557 73.8707C176.621 67.9827 176.172 61.9027 171.74 56.6867C175.487 58.836 176.45 50.7933 176.456 48.164V38.1693C176.456 29.5027 170.477 26.5 165.349 26.5C160.226 26.5 149.971 34.836 146.561 34.836C142.455 34.836 141.663 33.9987 133.741 33.9987ZM130.128 83.0333C131.209 82.6653 132.489 82.5 133.741 82.5C134.994 82.5 136.273 82.6653 137.36 83.0333C137.895 83.2147 138.537 83.5027 139.115 83.9613C139.511 84.2594 139.835 84.6423 140.063 85.0816C140.291 85.521 140.417 86.0057 140.432 86.5C140.432 87.7267 139.688 88.58 139.115 89.0387C138.543 89.4973 137.89 89.7853 137.36 89.9667C136.273 90.3347 134.994 90.5 133.741 90.5C132.489 90.5 131.209 90.3347 130.128 89.9667C129.493 89.7592 128.897 89.4454 128.367 89.0387C127.971 88.7406 127.647 88.3577 127.419 87.9184C127.192 87.479 127.065 86.9943 127.05 86.5C127.05 85.2733 127.794 84.42 128.367 83.9613C128.94 83.5027 129.598 83.2147 130.128 83.0333ZM145.357 66.5C146.09 65.284 147.53 63.8333 149.692 63.8333C151.855 63.8333 153.3 65.284 154.028 66.5C154.788 67.7747 155.152 69.3107 155.152 70.836C155.152 72.3613 154.788 73.892 154.028 75.1613C153.3 76.3827 151.855 77.8333 149.692 77.8333C147.53 77.8333 146.09 76.3827 145.357 75.1667C144.602 73.8484 144.214 72.3535 144.233 70.836C144.233 69.3107 144.596 67.7747 145.357 66.5053M113.455 66.5053C114.188 65.2893 115.628 63.8387 117.79 63.8387C119.953 63.8387 121.398 65.2893 122.126 66.5053C122.886 67.78 123.25 69.316 123.25 70.8413C123.25 72.3667 122.886 73.8973 122.126 75.1667C121.398 76.388 119.953 77.8387 117.79 77.8387C115.628 77.8387 114.188 76.388 113.455 75.172C112.7 73.8537 112.312 72.3588 112.331 70.8413C112.331 69.316 112.695 67.7747 113.455 66.5053Z" fill="#F2F2F2"/>
</g>
<path d="M6.40001 165.8H16V148.2H6.40001V165.8ZM1.22786e-05 172.2V141.8H18.4V145.8H22.4V168.2H18.4V172.2H1.22786e-05ZM30.4117 165.8H40.0117V164.2H30.4117V165.8ZM28.0117 172.2V168.2H24.0117V161.8H28.0117V157.8H40.0117V156.2H28.0117V149.8H42.4117V153.8H46.4117V172.2H28.0117ZM48.0234 172.2V149.8H66.4234V153.8H70.4234V172.2H64.0234V156.2H54.4234V172.2H48.0234ZM72.0352 176.2V169.8H88.0352V168.2H76.0352V164.2H72.0352V149.8H78.4352V161.8H88.0352V149.8H94.4352V172.2H90.4352V176.2H72.0352ZM102.447 165.8H112.047V164.2H102.447V165.8ZM100.047 172.2V168.2H96.0469V161.8H100.047V157.8H112.047V156.2H100.047V149.8H114.447V153.8H118.447V172.2H100.047ZM120.059 176.2V169.8H142.459V176.2H120.059ZM144.07 172.2V141.8H150.47V165.8H166.47V172.2H144.07ZM174.482 165.8H184.082V164.2H174.482V165.8ZM172.082 172.2V168.2H168.082V161.8H172.082V157.8H184.082V156.2H172.082V149.8H186.482V153.8H190.482V172.2H172.082ZM198.494 161.8H208.094V156.2H202.494V160.2H198.494V161.8ZM192.094 176.2V149.8H198.494V153.8H200.094V149.8H210.494V153.8H214.494V164.2H210.494V168.2H198.494V176.2H192.094ZM218.105 172.2V141.8H224.505V157.8H226.105V153.8H230.105V149.8H236.505V156.2H232.505V160.2H228.505V161.8H232.505V165.8H236.505V172.2H230.105V168.2H226.105V164.2H224.505V172.2H218.105ZM246.517 165.8H256.117V164.2H246.517V165.8ZM244.117 172.2V168.2H240.117V161.8H244.117V157.8H256.117V156.2H244.117V149.8H258.517V153.8H262.517V172.2H244.117Z" fill="#F2F2F2"/>
<defs>
<clipPath id="clip0_227_7474">
<rect width="128" height="128" fill="white" transform="translate(69.7)"/>
</clipPath>
</defs>
  </symbol>
  <symbol id="icon-lapka" viewBox="0 0 256 256">
    <g clip-path="url(#clip0_227_7369)">
<path fill-rule="evenodd" clip-rule="evenodd" d="M128.083 67.9973C112.239 67.9973 110.654 69.672 102.454 69.672C95.624 69.672 75.1126 53 64.8676 53C54.6227 53 42.6541 59.0053 42.6541 76.3387V96.3387C42.6755 101.587 44.5811 117.672 52.0748 113.373C43.2215 123.805 42.333 135.976 42.4507 147.752C40.0634 148.435 37.6333 149.213 35.2674 150.013C27.945 152.509 20.1729 155.688 16.6723 157.949C14.8836 159.101 13.6272 160.913 13.1795 162.987C12.7318 165.062 13.1295 167.228 14.285 169.011C15.4406 170.793 17.2594 172.045 19.3413 172.491C21.4232 172.937 23.5977 172.541 25.3864 171.389C27.0565 170.312 33.105 167.656 40.4595 165.149L42.9003 164.349C43.3928 168.968 44.6239 173.203 46.4545 177.043L46.1976 177.181C41.8084 179.485 37.7404 182.141 35.1497 183.827L33.94 184.616C32.1513 185.767 30.8949 187.58 30.4472 189.654C29.9995 191.728 30.3971 193.895 31.5527 195.677C32.7083 197.46 34.5271 198.711 36.609 199.158C38.6909 199.604 40.8654 199.207 42.6541 198.056L44.0565 197.139C46.6793 195.432 50.0408 193.245 53.702 191.325C54.5584 190.87 55.3827 190.458 56.1749 190.088C74.6951 207.4 107.957 213 128.083 213C148.209 213 181.47 207.4 199.99 190.088C200.775 190.458 201.6 190.87 202.463 191.325C206.124 193.245 209.486 195.432 212.109 197.139L213.511 198.056C215.3 199.207 217.474 199.604 219.556 199.158C221.638 198.711 223.457 197.46 224.612 195.677C225.768 193.895 226.166 191.728 225.718 189.654C225.27 187.58 224.014 185.767 222.225 184.616L221.015 183.827C217.438 181.443 213.751 179.225 209.968 177.181L209.711 177.043C211.541 173.203 212.772 168.968 213.265 164.349L215.706 165.149C223.06 167.656 229.109 170.312 230.789 171.389C232.577 172.476 234.721 172.824 236.762 172.358C238.804 171.893 240.582 170.651 241.717 168.897C242.853 167.144 243.256 165.018 242.84 162.972C242.425 160.927 241.223 159.125 239.493 157.949C235.992 155.688 228.22 152.509 220.908 150.013C218.527 149.203 216.129 148.446 213.714 147.741C213.843 135.965 212.944 123.805 204.08 113.373C211.573 117.672 213.5 101.587 213.511 96.328V76.3387C213.511 59.0053 201.553 53 191.297 53C181.053 53 160.541 69.672 153.722 69.672C145.511 69.672 143.926 67.9973 128.083 67.9973ZM120.856 166.067C123.019 165.331 125.578 165 128.083 165C130.588 165 133.146 165.331 135.319 166.067C136.39 166.429 137.675 167.005 138.831 167.923C139.623 168.519 140.271 169.285 140.726 170.163C141.182 171.042 141.434 172.011 141.464 173C141.464 175.453 139.976 177.16 138.831 178.077C137.685 178.995 136.379 179.571 135.319 179.933C133.146 180.669 130.588 181 128.083 181C125.578 181 123.019 180.669 120.856 179.933C119.585 179.518 118.394 178.891 117.334 178.077C116.542 177.481 115.895 176.715 115.439 175.837C114.983 174.958 114.731 173.989 114.701 173C114.701 170.547 116.189 168.84 117.334 167.923C118.48 167.005 119.797 166.429 120.856 166.067ZM151.313 133C152.78 130.568 155.659 127.667 159.984 127.667C164.309 127.667 167.2 130.568 168.656 133C170.176 135.549 170.904 138.621 170.904 141.672C170.904 144.723 170.176 147.784 168.656 150.323C167.2 152.765 164.309 155.667 159.984 155.667C155.659 155.667 152.78 152.765 151.313 150.333C149.804 147.697 149.028 144.707 149.065 141.672C149.065 138.621 149.793 135.549 151.313 133.011M87.5094 133.011C88.976 130.579 91.8558 127.677 96.1807 127.677C100.506 127.677 103.396 130.579 104.852 133.011C106.372 135.56 107.1 138.632 107.1 141.683C107.1 144.733 106.372 147.795 104.852 150.333C103.396 152.776 100.506 155.677 96.1807 155.677C91.8558 155.677 88.976 152.776 87.5094 150.344C86.0004 147.707 85.2244 144.718 85.2613 141.683C85.2613 138.632 85.9892 135.549 87.5094 133.011Z" fill="#F2F2F2"/>
</g>
<defs>
<clipPath id="clip0_227_7369">
<rect width="256" height="256" fill="white"/>
</clipPath>
</defs>
  </symbol>
  <symbol id="icon-NextDotJs" viewBox="0 0 16 16">
    <path d="M11.8745 15.0026C11.815 15.0341 11.82 15.0441 11.877 15.0151C11.8946 15.0081 11.9107 14.9977 11.9245 14.9846C11.9245 14.9741 11.9245 14.9741 11.8745 15.0026ZM11.9945 14.9376C11.966 14.9611 11.966 14.9611 12 14.9456C12.0124 14.9394 12.0238 14.9315 12.034 14.9221C12.034 14.9086 12.026 14.9116 11.9945 14.9376ZM12.0725 14.8906C12.044 14.9141 12.044 14.9141 12.078 14.8986C12.0904 14.8922 12.1018 14.8842 12.112 14.8746C12.112 14.8621 12.104 14.8646 12.0725 14.8906ZM12.1515 14.8441C12.123 14.8676 12.123 14.8676 12.156 14.8516C12.1745 14.8416 12.19 14.8311 12.19 14.8281C12.19 14.8156 12.182 14.8181 12.1515 14.8441ZM12.258 14.7736C12.2035 14.8101 12.1845 14.8336 12.2345 14.8076C12.268 14.7871 12.325 14.7421 12.315 14.7421C12.2935 14.7501 12.2755 14.7636 12.2575 14.7736H12.258ZM7.4765 0.00562814C7.44 0.00812814 7.3305 0.0181281 7.2345 0.0261281C4.9605 0.232128 2.833 1.45613 1.4845 3.34163C0.738794 4.37548 0.254341 5.57444 0.0725 6.83613C0.008 7.27613 0 7.40613 0 8.00263C0 8.59863 0.008 8.72663 0.0725 9.16663C0.508 12.1721 2.646 14.6951 5.544 15.6301C6.0655 15.7966 6.612 15.9116 7.2345 15.9821C7.4765 16.0081 8.523 16.0081 8.765 15.9821C9.841 15.8621 10.7495 15.5966 11.6485 15.1381C11.7865 15.0681 11.8125 15.0496 11.794 15.0341C11.3554 14.4544 10.9206 13.8719 10.4895 13.2866L9.211 11.5601L7.6095 9.18763C7.07679 8.39326 6.53861 7.60257 5.995 6.81563C5.9895 6.81563 5.9825 7.87013 5.9795 9.15613C5.974 11.4086 5.974 11.5001 5.9455 11.5521C5.91825 11.615 5.86925 11.6659 5.8075 11.6956C5.758 11.7191 5.7135 11.7241 5.477 11.7241H5.2065L5.136 11.6801C5.09192 11.6517 5.05606 11.6122 5.032 11.5656L4.998 11.4951L5.0005 8.35963L5.006 5.22413L5.0555 5.16163C5.08753 5.12362 5.12636 5.09191 5.17 5.06813C5.2355 5.03663 5.2615 5.03163 5.532 5.03163C5.8495 5.03163 5.902 5.04413 5.9855 5.13563C6.63426 6.10057 7.27744 7.06925 7.915 8.04163C8.9545 9.61763 10.3735 11.7681 11.071 12.8231L12.3395 14.7426L12.402 14.7011C13.0114 14.2958 13.5638 13.8106 14.0445 13.2586C15.0522 12.1051 15.7061 10.6856 15.928 9.17013C15.9925 8.73013 16.0005 8.59963 16.0005 8.00363C16.0005 7.40763 15.9925 7.27963 15.928 6.83963C15.4925 3.83413 13.3545 1.31113 10.4565 0.375628C9.91487 0.204144 9.35742 0.0873935 8.7925 0.0271281C8.641 0.0116281 7.607 -0.00687186 7.477 0.00662814L7.4765 0.00562814ZM10.75 4.84413C10.7872 4.86233 10.8205 4.88781 10.8477 4.91907C10.8749 4.95033 10.8956 4.98674 10.9085 5.02613C10.922 5.06813 10.9245 5.93763 10.922 7.89613L10.9165 10.7081L10.422 9.94813L9.9245 9.18763V7.14613C9.9245 5.82263 9.93 5.08063 9.937 5.04413C9.96148 4.96044 10.0176 4.88959 10.0935 4.84663C10.1555 4.81513 10.1795 4.81263 10.427 4.81263C10.6585 4.81263 10.698 4.81513 10.75 4.84413Z" fill="black"/>
  </symbol>
  <symbol id="icon-React" viewBox="0 0 16 16">
    <path d="M13.0688 5.5376C12.9 5.48135 12.7312 5.42822 12.5625 5.37822C12.5906 5.2626 12.6156 5.14697 12.6406 5.03135C13.025 3.16885 12.7719 1.67197 11.9187 1.17822C11.0969 0.706347 9.75625 1.19697 8.4 2.37822C8.26562 2.49385 8.13437 2.61572 8.00937 2.7376C7.925 2.65635 7.8375 2.5751 7.75 2.49697C6.32812 1.23447 4.90313 0.703223 4.05 1.2001C3.23125 1.6751 2.9875 3.08447 3.33125 4.84697C3.36562 5.02197 3.40313 5.19385 3.44688 5.36885C3.24688 5.4251 3.05 5.4876 2.86562 5.55322C1.19687 6.13135 0 7.04385 0 7.9876C0 8.9626 1.275 9.94072 3.00938 10.5345C3.15 10.5813 3.29063 10.6282 3.43438 10.6688C3.3875 10.8563 3.34687 11.0407 3.30938 11.2313C2.98125 12.9657 3.2375 14.3407 4.05625 14.8126C4.9 15.3001 6.31875 14.8001 7.7 13.5907C7.80937 13.4938 7.91875 13.3938 8.02812 13.2876C8.16562 13.422 8.30937 13.5501 8.45312 13.6751C9.79062 14.8251 11.1125 15.2907 11.9281 14.8188C12.7719 14.3313 13.0469 12.8532 12.6906 11.0532C12.6625 10.9157 12.6313 10.7751 12.5969 10.6313C12.6969 10.6032 12.7937 10.572 12.8906 10.5407C14.6938 9.94385 16 8.97822 16 7.9876C16 7.04072 14.7688 6.12197 13.0688 5.5376ZM8.84062 2.88447C10.0031 1.87197 11.0875 1.4751 11.5813 1.75947C12.1094 2.0626 12.3125 3.2876 11.9812 4.89697C11.9594 5.00322 11.9375 5.10635 11.9094 5.20947C11.2156 5.05322 10.5125 4.94072 9.80625 4.87822C9.4 4.29697 8.95625 3.74072 8.475 3.21885C8.59688 3.10322 8.71562 2.99385 8.84062 2.88447ZM5.225 9.60947C5.38438 9.88135 5.54688 10.1532 5.71875 10.4188C5.23125 10.3657 4.74688 10.2876 4.26875 10.1845C4.40625 9.73447 4.57812 9.26885 4.77812 8.79385C4.92188 9.06885 5.06875 9.34072 5.225 9.60947ZM4.27812 5.8501C4.72812 5.7501 5.20625 5.66885 5.70312 5.60635C5.5375 5.86572 5.375 6.13135 5.22188 6.4001C5.06875 6.66572 4.91875 6.9376 4.77812 7.2126C4.58125 6.74697 4.41562 6.29072 4.27812 5.8501ZM5.13438 8.00322C5.34063 7.57197 5.56562 7.1501 5.80312 6.73447C6.04063 6.31885 6.29688 5.91572 6.56563 5.51885C7.03438 5.48447 7.5125 5.46572 8 5.46572C8.4875 5.46572 8.96875 5.48447 9.43437 5.51885C9.7 5.9126 9.95312 6.31572 10.1938 6.72822C10.5547 7.34697 10.6594 7.5626 10.8719 7.99072C10.6625 8.42197 10.4375 8.84697 10.1969 9.26572C9.95937 9.68135 9.70625 10.0845 9.44063 10.4845C8.975 10.5188 8.49063 10.5345 8 10.5345C7.50938 10.5345 7.03437 10.5188 6.575 10.4907C6.30312 10.0938 6.04688 9.6876 5.80625 9.27197C5.44531 8.64854 5.34375 8.43447 5.13438 8.00322ZM10.7781 9.60322C10.9375 9.32822 11.0875 9.0501 11.2344 8.76885C11.4344 9.22197 11.6094 9.68135 11.7625 10.1532C11.2781 10.2626 10.7875 10.347 10.2937 10.4032C10.4625 10.1407 10.6219 9.87197 10.7781 9.60322ZM11.2281 7.2126C11.0812 6.9376 10.9312 6.6626 10.775 6.39385C10.6219 6.12822 10.4625 5.86572 10.2969 5.60635C10.8 5.66885 11.2812 5.75322 11.7312 5.85635C11.5875 6.31885 11.4187 6.76885 11.2281 7.2126ZM8.00625 3.69697C8.33438 4.05322 8.64375 4.42822 8.93125 4.81572C8.3125 4.7876 7.69063 4.7876 7.07188 4.81572C7.37813 4.4126 7.69375 4.0376 8.00625 3.69697ZM4.38125 1.78135C4.90625 1.4751 6.07188 1.9126 7.3 3.0001C7.37813 3.06885 7.45625 3.14385 7.5375 3.21885C7.05312 3.74072 6.60625 4.29697 6.19688 4.87822C5.49062 4.94072 4.79063 5.0501 4.09688 5.20322C4.05625 5.04385 4.02187 4.88135 3.9875 4.71885C3.69375 3.20635 3.8875 2.06572 4.38125 1.78135ZM3.61562 10.0188C3.48438 9.98135 3.35625 9.94072 3.22813 9.89697C2.5625 9.6876 1.80625 9.35635 1.25937 8.92197C0.94375 8.70322 0.73125 8.36572 0.671875 7.9876C0.671875 7.41572 1.65937 6.68447 3.08437 6.1876C3.2625 6.1251 3.44375 6.06885 3.625 6.01572C3.8375 6.69385 4.09375 7.35947 4.39062 8.00322C4.09062 8.65635 3.83125 9.33135 3.61562 10.0188ZM7.25938 13.0813C6.74375 13.5532 6.14687 13.9282 5.49687 14.1845C5.15 14.3501 4.75 14.3657 4.39375 14.2251C3.89688 13.9376 3.69062 12.8345 3.97187 11.3501C4.00625 11.1751 4.04375 11.0001 4.0875 10.8282C4.7875 10.9782 5.49375 11.0813 6.20937 11.1345C6.62187 11.7188 7.075 12.2782 7.55937 12.8032C7.45937 12.9001 7.35938 12.9938 7.25938 13.0813ZM8.025 12.322C7.70625 11.9782 7.3875 11.597 7.07812 11.1876C7.37813 11.2001 7.6875 11.2063 8 11.2063C8.32187 11.2063 8.6375 11.2001 8.95 11.1845C8.6625 11.5813 8.35312 11.9595 8.025 12.322ZM12.1094 13.2595C12.0813 13.6407 11.8938 13.997 11.5938 14.2376C11.0969 14.5251 10.0375 14.1501 8.89375 13.1688C8.7625 13.0563 8.63125 12.9345 8.49687 12.8095C8.975 12.2813 9.41563 11.722 9.81563 11.1345C10.5312 11.0751 11.2437 10.9657 11.9469 10.8063C11.9781 10.9345 12.0063 11.0626 12.0312 11.1876C12.1844 11.8626 12.2094 12.5657 12.1094 13.2595ZM12.6781 9.9001C12.5906 9.92822 12.5031 9.95635 12.4125 9.98135C12.1938 9.3001 11.925 8.63447 11.6156 7.9876C11.9156 7.3501 12.1688 6.69385 12.3813 6.02197C12.5438 6.06885 12.7 6.11885 12.85 6.16885C14.3063 6.66885 15.3281 7.4126 15.3281 7.98135C15.3281 8.59385 14.2375 9.38447 12.6781 9.9001ZM8 9.43135C8.37959 9.43135 8.74364 9.28056 9.01205 9.01214C9.28046 8.74373 9.43125 8.37969 9.43125 8.0001C9.43125 7.62051 9.28046 7.25646 9.01205 6.98805C8.74364 6.71964 8.37959 6.56885 8 6.56885C7.62041 6.56885 7.25636 6.71964 6.98795 6.98805C6.71954 7.25646 6.56875 7.62051 6.56875 8.0001C6.56875 8.37969 6.71954 8.74373 6.98795 9.01214C7.25636 9.28056 7.62041 9.43135 8 9.43135Z" fill="black"/>
  </symbol>
  <symbol id="icon-Sass" viewBox="0 0 16 16">
    <path d="M13.7782 8.89741C13.2757 8.89741 12.7781 9.01241 12.3281 9.23491C12.1806 8.93741 12.0281 8.67741 12.0031 8.48241C11.9731 8.25491 11.9406 8.11991 11.9756 7.84991C12.0106 7.57991 12.1681 7.19741 12.1656 7.16991C12.1631 7.14241 12.1306 7.00491 11.8081 7.00241C11.4856 6.99991 11.2081 7.06491 11.1756 7.14991C11.1181 7.30491 11.0731 7.46491 11.0431 7.62741C10.9856 7.91991 10.3981 8.96491 10.0656 9.50991C9.95565 9.29741 9.86315 9.10991 9.84315 8.95991C9.81315 8.73241 9.78065 8.59741 9.81565 8.32741C9.85065 8.05741 10.0081 7.67491 10.0056 7.64741C10.0031 7.61991 9.97065 7.48241 9.64815 7.47991C9.32565 7.47741 9.04815 7.54241 9.01565 7.62741C8.98315 7.71241 8.94815 7.91241 8.88315 8.10491C8.81815 8.29741 8.03565 10.0374 7.83065 10.4899C7.72565 10.7199 7.63565 10.9049 7.57065 11.0299C7.56065 11.0499 7.55315 11.0624 7.54815 11.0724C7.55565 11.0599 7.56065 11.0474 7.56065 11.0524C7.50565 11.1599 7.47315 11.2199 7.47315 11.2199V11.2224C7.43065 11.3024 7.38315 11.3749 7.36065 11.3749C7.34565 11.3749 7.31315 11.1649 7.36815 10.8774C7.48565 10.2724 7.76315 9.33241 7.76065 9.29991C7.75815 9.28241 7.81315 9.1199 7.57815 9.03241C7.35065 8.94991 7.26815 9.08741 7.24815 9.08741C7.22815 9.08741 7.21315 9.13741 7.21315 9.13741C7.21315 9.13741 7.46565 8.07741 6.72815 8.07741C6.26815 8.07741 5.62815 8.58241 5.31315 9.03991C5.11565 9.14741 4.68815 9.37991 4.23815 9.62741C4.06565 9.72241 3.88815 9.81991 3.72065 9.91241C3.70815 9.89991 3.69815 9.88741 3.68565 9.87491C2.79065 8.91991 1.13815 8.24491 1.20815 6.96241C1.23315 6.49491 1.39565 5.26741 4.38565 3.77741C6.83565 2.55741 8.79315 2.89241 9.13065 3.63741C9.61565 4.69991 8.08315 6.67741 5.53815 6.96241C4.56815 7.06991 4.05815 6.69491 3.93065 6.55491C3.79815 6.40741 3.77815 6.39991 3.72815 6.42741C3.64565 6.47241 3.69815 6.60241 3.72815 6.67991C3.80315 6.87741 4.11565 7.22741 4.64815 7.40241C5.11565 7.55491 6.25315 7.63991 7.62815 7.10741C9.17315 6.51241 10.3756 4.85491 10.0231 3.46741C9.66315 2.05741 7.32565 1.59491 5.11565 2.37991C3.79815 2.84741 2.37315 3.58241 1.34815 4.53991C0.13065 5.67991 -0.0643502 6.67241 0.0156498 7.08741C0.30065 8.55991 2.33065 9.51991 3.14315 10.2299C3.10315 10.2524 3.06565 10.2724 3.03065 10.2924C2.62315 10.4949 1.07565 11.3049 0.68815 12.1599C0.25065 13.1299 0.76065 13.8249 1.09565 13.9199C2.14065 14.2099 3.21065 13.6874 3.78565 12.8299C4.36065 11.9724 4.29065 10.8524 4.02565 10.3424C4.02315 10.3349 4.01815 10.3299 4.01565 10.3224C4.12065 10.2599 4.22815 10.1974 4.33565 10.1349C4.54315 10.0124 4.74565 9.89991 4.92315 9.80241C4.82315 10.0724 4.75065 10.3974 4.71315 10.8674C4.66815 11.4174 4.89565 12.1299 5.19065 12.4099C5.32065 12.5324 5.47815 12.5349 5.57565 12.5349C5.92065 12.5349 6.07565 12.2499 6.24815 11.9099C6.46065 11.4949 6.64815 11.0124 6.64815 11.0124C6.64815 11.0124 6.41315 12.3174 7.05565 12.3174C7.29065 12.3174 7.52565 12.0149 7.63065 11.8599V11.8624C7.63065 11.8624 7.63565 11.8524 7.64815 11.8324C7.67315 11.7949 7.68565 11.7724 7.68565 11.7724V11.7649C7.78065 11.6024 7.98815 11.2299 8.30065 10.6149C8.70565 9.81991 9.09315 8.82741 9.09315 8.82741C9.13065 9.04491 9.18315 9.25991 9.24815 9.47241C9.31815 9.70991 9.46565 9.96991 9.58315 10.2224C9.48815 10.3524 9.43065 10.4274 9.43065 10.4274C9.43065 10.4299 9.43065 10.4299 9.43315 10.4324C9.35815 10.5324 9.27315 10.6399 9.18565 10.7449C8.86565 11.1249 8.48565 11.5599 8.43565 11.6849C8.37565 11.8324 8.39065 11.9424 8.50565 12.0274C8.59065 12.0924 8.74065 12.1024 8.89815 12.0899C9.18565 12.0699 9.38815 11.9999 9.48565 11.9549C9.66565 11.8899 9.83565 11.8024 9.99065 11.6899C10.3031 11.4599 10.4931 11.1299 10.4756 10.6949C10.4656 10.4549 10.3881 10.2149 10.2931 9.98991C10.3206 9.94991 10.3506 9.90741 10.3781 9.86491C10.8731 9.14241 11.2556 8.34991 11.2556 8.34991C11.2931 8.56741 11.3456 8.78241 11.4106 8.9949C11.4706 9.19741 11.5881 9.41991 11.6956 9.63741C11.2306 10.0149 10.9431 10.4524 10.8431 10.7399C10.6581 11.2724 10.8031 11.5124 11.0756 11.5674C11.1981 11.5924 11.3731 11.5349 11.5031 11.4799C11.6956 11.4149 11.8781 11.3224 12.0431 11.2024C12.3556 10.9724 12.6581 10.6499 12.6381 10.2124C12.6306 10.0149 12.5756 9.81741 12.5031 9.62741C12.8956 9.46241 13.4056 9.37241 14.0556 9.44741C15.4481 9.60991 15.7206 10.4799 15.6681 10.8424C15.6156 11.2049 15.3231 11.4074 15.2256 11.4674C15.1281 11.5274 15.0981 11.5499 15.1056 11.5949C15.1181 11.6599 15.1631 11.6574 15.2456 11.6424C15.3606 11.6224 15.9756 11.3474 16.0031 10.6749C16.0431 9.82491 15.2256 8.88991 13.7782 8.89741ZM3.05065 12.5149C2.59065 13.0174 1.94565 13.2074 1.66815 13.0474C1.37065 12.8749 1.48815 12.1349 2.05565 11.5999C2.40065 11.2749 2.84565 10.9749 3.14065 10.7899C3.20815 10.7499 3.30565 10.6899 3.42565 10.6174C3.44565 10.6049 3.45565 10.5999 3.45565 10.5999C3.47815 10.5849 3.50315 10.5724 3.52815 10.5574C3.73565 11.3174 3.53565 11.9874 3.05065 12.5149ZM6.41065 10.2299C6.25065 10.6224 5.91315 11.6224 5.70815 11.5699C5.53315 11.5249 5.42565 10.7624 5.67315 10.0124C5.79815 9.63491 6.06315 9.18491 6.22065 9.00991C6.47315 8.72741 6.75065 8.63741 6.81565 8.74991C6.90315 8.89741 6.51065 9.98491 6.41065 10.2299ZM9.18565 11.5549C9.11815 11.5899 9.05565 11.6124 9.02565 11.5949C9.00315 11.5824 9.05315 11.5349 9.05315 11.5349C9.05315 11.5349 9.40065 11.1624 9.53815 10.9924C9.61815 10.8924 9.71065 10.7749 9.81065 10.6449C9.81065 10.6574 9.81315 10.6699 9.81315 10.6849C9.81065 11.1324 9.38065 11.4349 9.18565 11.5549ZM11.3256 11.0674C11.2756 11.0324 11.2831 10.9149 11.4506 10.5499C11.5156 10.4074 11.6656 10.1674 11.9256 9.93741C11.9556 10.0249 11.9706 10.1149 11.9731 10.2074C11.9706 10.7699 11.5681 10.9799 11.3256 11.0674Z" fill="black"/>
  </symbol>
  <symbol id="icon-Telegram" viewBox="0 0 16 16">
    <path d="M8 0.25C5.94457 0.25 3.97333 1.06652 2.51992 2.51992C1.06652 3.97333 0.25 5.94457 0.25 8C0.25 10.0554 1.06652 12.0267 2.51992 13.4801C3.97333 14.9335 5.94457 15.75 8 15.75C10.0554 15.75 12.0267 14.9335 13.4801 13.4801C14.9335 12.0267 15.75 10.0554 15.75 8C15.75 5.94457 14.9335 3.97333 13.4801 2.51992C12.0267 1.06652 10.0554 0.25 8 0.25ZM11.5938 5.52187C11.4781 6.74687 10.9719 9.72188 10.7156 11.0938C10.6062 11.675 10.3938 11.8687 10.1875 11.8875C9.7375 11.9281 9.39688 11.5906 8.95938 11.3031C8.27813 10.8563 7.89062 10.5781 7.23125 10.1406C6.46562 9.6375 6.9625 9.35938 7.39687 8.90625C7.5125 8.7875 9.49375 6.98438 9.53125 6.82188C9.5375 6.8 9.54062 6.725 9.49375 6.68437C9.44687 6.64375 9.38125 6.65937 9.33438 6.66875C9.26562 6.68437 8.175 7.40312 6.06563 8.82812C5.75625 9.04062 5.475 9.14375 5.225 9.1375C4.94688 9.13125 4.41563 8.98125 4.01875 8.85312C3.53438 8.69687 3.14688 8.6125 3.18125 8.34375C3.2 8.20312 3.39062 8.0625 3.75625 7.91563C6.01562 6.93125 7.52187 6.28125 8.275 5.96875C10.4281 5.075 10.875 4.91875 11.1656 4.9125C11.2312 4.9125 11.3719 4.92813 11.4656 5.00313C11.5281 5.05625 11.5656 5.13125 11.575 5.2125C11.5906 5.3125 11.5938 5.41563 11.5875 5.51875L11.5938 5.52187Z" fill="black"/>
  </symbol>
  <symbol id="icon-Twitch" viewBox="0 0 16 16">
    <path d="M12.2312 3.23438H11.025V6.6625H12.2312V3.23438ZM8.9125 3.21875H7.70625V6.65H8.9125V3.21875ZM3.78125 0L0.765625 2.85625V13.1438H4.38438V16L7.4 13.1438H9.81563L15.2469 8V0H3.78125ZM14.0406 7.43125L11.6281 9.71562H9.21562L7.10313 11.7156V9.71562H4.3875V1.14375H14.0406V7.43125Z" fill="black"/>
  </symbol>
  <symbol id="icon-TypeScript" viewBox="0 0 16 16">
    <path d="M0 8V16H16V0H0V8ZM12.893 7.362C13.2768 7.45167 13.6256 7.65276 13.8955 7.94C14.0415 8.096 14.26 8.3825 14.2785 8.453C14.2835 8.474 13.5885 8.94 13.1665 9.2005C13.151 9.211 13.0885 9.146 13.0205 9.044C12.815 8.7445 12.5985 8.6145 12.268 8.591C11.7835 8.5595 11.471 8.8125 11.4735 9.237C11.471 9.34087 11.4941 9.44376 11.541 9.5365C11.648 9.758 11.8485 9.8905 12.468 10.159C13.614 10.651 14.1035 10.9765 14.408 11.4375C14.749 11.953 14.8245 12.776 14.5955 13.3905C14.3405 14.0545 13.71 14.5075 12.8245 14.656C12.551 14.7055 11.9 14.6975 11.6055 14.643C10.9625 14.5285 10.353 14.2105 9.978 13.794C9.8295 13.6325 9.543 13.208 9.5615 13.1795C9.5695 13.169 9.6345 13.1275 9.7075 13.0855L10.3015 12.7415L10.7625 12.4735L10.859 12.6165C10.9945 12.822 11.2885 13.1035 11.466 13.197C11.9765 13.468 12.677 13.429 13.0235 13.119C13.164 13.002 13.2425 12.822 13.232 12.64C13.232 12.455 13.2085 12.372 13.112 12.2335C12.987 12.0565 12.7345 11.9055 12.013 11.593C11.1875 11.236 10.8305 11.0175 10.508 10.666C10.3045 10.435 10.1543 10.162 10.068 9.8665C10.008 9.64 9.9925 9.072 10.0395 8.8455C10.209 8.046 10.813 7.4915 11.68 7.3275C11.9615 7.273 12.6175 7.2935 12.8935 7.3615L12.893 7.362ZM9.138 8.0315L9.143 8.685H7.0595V14.6045H5.5855V8.685H3.505V8.0445C3.505 7.6875 3.513 7.391 3.523 7.383C3.531 7.3725 4.7965 7.3675 6.333 7.37L9.13 7.378L9.138 8.0315Z" fill="black"/>
  </symbol>
  <symbol id="icon-VueDotJs" viewBox="0 0 16 16">
    <path d="M12.7464 1.15332H10L8 4.31761L6.28571 1.15332H0L8 14.8569L16 1.15332H12.7464ZM1.98929 2.29618H3.91071L8 9.37475L12.0857 2.29618H14.0071L8 12.589L1.98929 2.29618Z" fill="black"/>
  </symbol>
  <symbol id="icon-YouTube" viewBox="0 0 16 16">
    <path d="M15.2694 4.33595C15.0972 3.67761 14.5805 3.16095 13.9278 2.98595C12.7472 2.6665 8.00277 2.6665 8.00277 2.6665C8.00277 2.6665 3.25832 2.6665 2.07499 2.98595C1.42221 3.16095 0.908323 3.67761 0.733323 4.33595C0.416656 5.52762 0.416656 8.01095 0.416656 8.01095C0.416656 8.01095 0.416656 10.4943 0.733323 11.6859C0.908323 12.3415 1.42221 12.8387 2.07499 13.0137C3.25832 13.3332 8.00277 13.3332 8.00277 13.3332C8.00277 13.3332 12.7472 13.3332 13.9305 13.0137C14.5833 12.8387 15.0972 12.3415 15.2722 11.6859C15.5889 10.4943 15.5889 8.01095 15.5889 8.01095C15.5889 8.01095 15.5889 5.52762 15.2722 4.33595H15.2694ZM6.44999 10.2665V5.75539L10.4139 8.01095L6.44999 10.2665Z" fill="black"/>
  </symbol>
</svg>